<?xml version="1.0" encoding="UTF-8" standalone="no"?>
<!-- Created with Inkscape (http://www.inkscape.org/) -->

<svg
   xmlns:dc="http://purl.org/dc/elements/1.1/"
   xmlns:cc="http://creativecommons.org/ns#"
   xmlns:rdf="http://www.w3.org/1999/02/22-rdf-syntax-ns#"
   xmlns:svg="http://www.w3.org/2000/svg"
   xmlns="http://www.w3.org/2000/svg"
   xmlns:sodipodi="http://sodipodi.sourceforge.net/DTD/sodipodi-0.dtd"
   xmlns:inkscape="http://www.inkscape.org/namespaces/inkscape"
   id="svg3336"
   version="1.1"
   inkscape:version="0.91 r13725"
   xml:space="preserve"
   width="166.15833mm"
   height="72.534203mm"
   viewBox="0 0 588.74997 257.01095"
   sodipodi:docname="1 Introduction.svg"><metadata
     id="metadata3342"><rdf:RDF><cc:Work
         rdf:about=""><dc:format>image/svg+xml</dc:format><dc:type
           rdf:resource="http://purl.org/dc/dcmitype/StillImage" /><dc:title></dc:title></cc:Work></rdf:RDF></metadata><defs
     id="defs3340"><clipPath
       clipPathUnits="userSpaceOnUse"
       id="clipPath3350"><path
         d="m 0,1.8311e-4 540,0 0,779.99999689 -540,0 L 0,1.8311e-4 Z"
         id="path3352"
         inkscape:connector-curvature="0"
         style="clip-rule:evenodd" /></clipPath><clipPath
       clipPathUnits="userSpaceOnUse"
       id="clipPath3384"><path
         d="M 8.047e-6,0 540.00001,0 l 0,780 L 8.047e-6,780 l 0,-780 z"
         id="path3386"
         inkscape:connector-curvature="0"
         style="clip-rule:evenodd" /></clipPath><clipPath
       clipPathUnits="userSpaceOnUse"
       id="clipPath3396"><path
         d="M 8.047e-6,0 540.00001,0 l 0,780 L 8.047e-6,780 l 0,-780 z"
         id="path3398"
         inkscape:connector-curvature="0"
         style="clip-rule:evenodd" /></clipPath><clipPath
       clipPathUnits="userSpaceOnUse"
       id="clipPath3408"><path
         d="M 8.047e-6,0 540.00001,0 l 0,780 L 8.047e-6,780 l 0,-780 z"
         id="path3410"
         inkscape:connector-curvature="0"
         style="clip-rule:evenodd" /></clipPath><clipPath
       clipPathUnits="userSpaceOnUse"
       id="clipPath3420"><path
         d="M 8.047e-6,0 540.00001,0 l 0,780 L 8.047e-6,780 l 0,-780 z"
         id="path3422"
         inkscape:connector-curvature="0"
         style="clip-rule:evenodd" /></clipPath><clipPath
       clipPathUnits="userSpaceOnUse"
       id="clipPath3432"><path
         d="M 8.047e-6,0 540.00001,0 l 0,780 L 8.047e-6,780 l 0,-780 z"
         id="path3434"
         inkscape:connector-curvature="0"
         style="clip-rule:evenodd" /></clipPath><clipPath
       clipPathUnits="userSpaceOnUse"
       id="clipPath3444"><path
         d="M 8.047e-6,0 540.00001,0 l 0,780 L 8.047e-6,780 l 0,-780 z"
         id="path3446"
         inkscape:connector-curvature="0"
         style="clip-rule:evenodd" /></clipPath><clipPath
       clipPathUnits="userSpaceOnUse"
       id="clipPath3464"><path
         d="M 8.047e-6,0 540.00001,0 l 0,780 L 8.047e-6,780 l 0,-780 z"
         id="path3466"
         inkscape:connector-curvature="0"
         style="clip-rule:evenodd" /></clipPath><clipPath
       clipPathUnits="userSpaceOnUse"
       id="clipPath3476"><path
         d="M 8.047e-6,0 540.00001,0 l 0,780 L 8.047e-6,780 l 0,-780 z"
         id="path3478"
         inkscape:connector-curvature="0"
         style="clip-rule:evenodd" /></clipPath><clipPath
       clipPathUnits="userSpaceOnUse"
       id="clipPath3488"><path
         d="M 8.047e-6,0 540.00001,0 l 0,780 L 8.047e-6,780 l 0,-780 z"
         id="path3490"
         inkscape:connector-curvature="0"
         style="clip-rule:evenodd" /></clipPath><clipPath
       clipPathUnits="userSpaceOnUse"
       id="clipPath3500"><path
         d="M 8.047e-6,0 540.00001,0 l 0,780 L 8.047e-6,780 l 0,-780 z"
         id="path3502"
         inkscape:connector-curvature="0"
         style="clip-rule:evenodd" /></clipPath><clipPath
       clipPathUnits="userSpaceOnUse"
       id="clipPath3512"><path
         d="M 8.047e-6,0 540.00001,0 l 0,780 L 8.047e-6,780 l 0,-780 z"
         id="path3514"
         inkscape:connector-curvature="0"
         style="clip-rule:evenodd" /></clipPath><clipPath
       clipPathUnits="userSpaceOnUse"
       id="clipPath3524"><path
         d="M 8.047e-6,0 540.00001,0 l 0,780 L 8.047e-6,780 l 0,-780 z"
         id="path3526"
         inkscape:connector-curvature="0"
         style="clip-rule:evenodd" /></clipPath><clipPath
       clipPathUnits="userSpaceOnUse"
       id="clipPath3536"><path
         d="M 8.047e-6,0 540.00001,0 l 0,780 L 8.047e-6,780 l 0,-780 z"
         id="path3538"
         inkscape:connector-curvature="0"
         style="clip-rule:evenodd" /></clipPath><clipPath
       clipPathUnits="userSpaceOnUse"
       id="clipPath3548"><path
         d="M 8.047e-6,0 540.00001,0 l 0,780 L 8.047e-6,780 l 0,-780 z"
         id="path3550"
         inkscape:connector-curvature="0"
         style="clip-rule:evenodd" /></clipPath><clipPath
       clipPathUnits="userSpaceOnUse"
       id="clipPath3560"><path
         d="M 8.047e-6,0 540.00001,0 l 0,780 L 8.047e-6,780 l 0,-780 z"
         id="path3562"
         inkscape:connector-curvature="0"
         style="clip-rule:evenodd" /></clipPath><clipPath
       clipPathUnits="userSpaceOnUse"
       id="clipPath3572"><path
         d="M 8.047e-6,0 540.00001,0 l 0,780 L 8.047e-6,780 l 0,-780 z"
         id="path3574"
         inkscape:connector-curvature="0"
         style="clip-rule:evenodd" /></clipPath><clipPath
       clipPathUnits="userSpaceOnUse"
       id="clipPath3584"><path
         d="M 8.047e-6,0 540.00001,0 l 0,780 L 8.047e-6,780 l 0,-780 z"
         id="path3586"
         inkscape:connector-curvature="0"
         style="clip-rule:evenodd" /></clipPath><clipPath
       clipPathUnits="userSpaceOnUse"
       id="clipPath3596"><path
         d="M 8.047e-6,0 540.00001,0 l 0,780 L 8.047e-6,780 l 0,-780 z"
         id="path3598"
         inkscape:connector-curvature="0"
         style="clip-rule:evenodd" /></clipPath><clipPath
       clipPathUnits="userSpaceOnUse"
       id="clipPath3608"><path
         d="M 8.047e-6,0 540.00001,0 l 0,780 L 8.047e-6,780 l 0,-780 z"
         id="path3610"
         inkscape:connector-curvature="0"
         style="clip-rule:evenodd" /></clipPath><clipPath
       clipPathUnits="userSpaceOnUse"
       id="clipPath3620"><path
         d="M 8.047e-6,0 540.00001,0 l 0,780 L 8.047e-6,780 l 0,-780 z"
         id="path3622"
         inkscape:connector-curvature="0"
         style="clip-rule:evenodd" /></clipPath><clipPath
       clipPathUnits="userSpaceOnUse"
       id="clipPath3632"><path
         d="M 8.047e-6,0 540.00001,0 l 0,780 L 8.047e-6,780 l 0,-780 z"
         id="path3634"
         inkscape:connector-curvature="0"
         style="clip-rule:evenodd" /></clipPath><clipPath
       clipPathUnits="userSpaceOnUse"
       id="clipPath3646"><path
         d="M 8.047e-6,0 540.00001,0 l 0,780 L 8.047e-6,780 l 0,-780 z"
         id="path3648"
         inkscape:connector-curvature="0"
         style="clip-rule:evenodd" /></clipPath><clipPath
       clipPathUnits="userSpaceOnUse"
       id="clipPath3658"><path
         d="M 8.047e-6,0 540.00001,0 l 0,780 L 8.047e-6,780 l 0,-780 z"
         id="path3660"
         inkscape:connector-curvature="0"
         style="clip-rule:evenodd" /></clipPath><clipPath
       clipPathUnits="userSpaceOnUse"
       id="clipPath3670"><path
         d="M 8.047e-6,0 540.00001,0 l 0,780 L 8.047e-6,780 l 0,-780 z"
         id="path3672"
         inkscape:connector-curvature="0"
         style="clip-rule:evenodd" /></clipPath><clipPath
       clipPathUnits="userSpaceOnUse"
       id="clipPath3682"><path
         d="M 8.047e-6,0 540.00001,0 l 0,780 L 8.047e-6,780 l 0,-780 z"
         id="path3684"
         inkscape:connector-curvature="0"
         style="clip-rule:evenodd" /></clipPath><clipPath
       clipPathUnits="userSpaceOnUse"
       id="clipPath3708"><path
         d="M 8.047e-6,0 540.00001,0 l 0,780 L 8.047e-6,780 l 0,-780 z"
         id="path3710"
         inkscape:connector-curvature="0"
         style="clip-rule:evenodd" /></clipPath><clipPath
       clipPathUnits="userSpaceOnUse"
       id="clipPath3720"><path
         d="M 8.047e-6,0 540.00001,0 l 0,780 L 8.047e-6,780 l 0,-780 z"
         id="path3722"
         inkscape:connector-curvature="0"
         style="clip-rule:evenodd" /></clipPath><clipPath
       clipPathUnits="userSpaceOnUse"
       id="clipPath3734"><path
         d="M 8.047e-6,0 540.00001,0 l 0,780 L 8.047e-6,780 l 0,-780 z"
         id="path3736"
         inkscape:connector-curvature="0"
         style="clip-rule:evenodd" /></clipPath><clipPath
       clipPathUnits="userSpaceOnUse"
       id="clipPath3746"><path
         d="M 8.047e-6,0 540.00001,0 l 0,780 L 8.047e-6,780 l 0,-780 z"
         id="path3748"
         inkscape:connector-curvature="0"
         style="clip-rule:evenodd" /></clipPath><clipPath
       clipPathUnits="userSpaceOnUse"
       id="clipPath3760"><path
         d="M 8.047e-6,0 540.00001,0 l 0,780 L 8.047e-6,780 l 0,-780 z"
         id="path3762"
         inkscape:connector-curvature="0"
         style="clip-rule:evenodd" /></clipPath><clipPath
       clipPathUnits="userSpaceOnUse"
       id="clipPath3776"><path
         d="M 8.047e-6,0 540.00001,0 l 0,780 L 8.047e-6,780 l 0,-780 z"
         id="path3778"
         inkscape:connector-curvature="0"
         style="clip-rule:evenodd" /></clipPath><clipPath
       clipPathUnits="userSpaceOnUse"
       id="clipPath3792"><path
         d="M 8.047e-6,0 540.00001,0 l 0,780 L 8.047e-6,780 l 0,-780 z"
         id="path3794"
         inkscape:connector-curvature="0"
         style="clip-rule:evenodd" /></clipPath><clipPath
       clipPathUnits="userSpaceOnUse"
       id="clipPath3804"><path
         d="M 8.047e-6,0 540.00001,0 l 0,780 L 8.047e-6,780 l 0,-780 z"
         id="path3806"
         inkscape:connector-curvature="0"
         style="clip-rule:evenodd" /></clipPath><clipPath
       clipPathUnits="userSpaceOnUse"
       id="clipPath3816"><path
         d="M 8.047e-6,0 540.00001,0 l 0,780 L 8.047e-6,780 l 0,-780 z"
         id="path3818"
         inkscape:connector-curvature="0"
         style="clip-rule:evenodd" /></clipPath><clipPath
       clipPathUnits="userSpaceOnUse"
       id="clipPath3828"><path
         d="M 8.047e-6,0 540.00001,0 l 0,780 L 8.047e-6,780 l 0,-780 z"
         id="path3830"
         inkscape:connector-curvature="0"
         style="clip-rule:evenodd" /></clipPath><clipPath
       clipPathUnits="userSpaceOnUse"
       id="clipPath3844"><path
         d="M 8.047e-6,0 540.00001,0 l 0,780 L 8.047e-6,780 l 0,-780 z"
         id="path3846"
         inkscape:connector-curvature="0"
         style="clip-rule:evenodd" /></clipPath><clipPath
       clipPathUnits="userSpaceOnUse"
       id="clipPath3860"><path
         d="M 8.047e-6,0 540.00001,0 l 0,780 L 8.047e-6,780 l 0,-780 z"
         id="path3862"
         inkscape:connector-curvature="0"
         style="clip-rule:evenodd" /></clipPath><clipPath
       clipPathUnits="userSpaceOnUse"
       id="clipPath3872"><path
         d="M 8.047e-6,0 540.00001,0 l 0,780 L 8.047e-6,780 l 0,-780 z"
         id="path3874"
         inkscape:connector-curvature="0"
         style="clip-rule:evenodd" /></clipPath><clipPath
       clipPathUnits="userSpaceOnUse"
       id="clipPath3884"><path
         d="M 8.047e-6,0 540.00001,0 l 0,780 L 8.047e-6,780 l 0,-780 z"
         id="path3886"
         inkscape:connector-curvature="0"
         style="clip-rule:evenodd" /></clipPath><clipPath
       clipPathUnits="userSpaceOnUse"
       id="clipPath3896"><path
         d="M 8.047e-6,0 540.00001,0 l 0,780 L 8.047e-6,780 l 0,-780 z"
         id="path3898"
         inkscape:connector-curvature="0"
         style="clip-rule:evenodd" /></clipPath><clipPath
       clipPathUnits="userSpaceOnUse"
       id="clipPath3912"><path
         d="M 8.047e-6,0 540.00001,0 l 0,780 L 8.047e-6,780 l 0,-780 z"
         id="path3914"
         inkscape:connector-curvature="0"
         style="clip-rule:evenodd" /></clipPath><clipPath
       clipPathUnits="userSpaceOnUse"
       id="clipPath3924"><path
         d="M 8.047e-6,0 540.00001,0 l 0,780 L 8.047e-6,780 l 0,-780 z"
         id="path3926"
         inkscape:connector-curvature="0"
         style="clip-rule:evenodd" /></clipPath><clipPath
       clipPathUnits="userSpaceOnUse"
       id="clipPath3936"><path
         d="M 8.047e-6,0 540.00001,0 l 0,780 L 8.047e-6,780 l 0,-780 z"
         id="path3938"
         inkscape:connector-curvature="0"
         style="clip-rule:evenodd" /></clipPath><clipPath
       clipPathUnits="userSpaceOnUse"
       id="clipPath3948"><path
         d="M 8.047e-6,0 540.00001,0 l 0,780 L 8.047e-6,780 l 0,-780 z"
         id="path3950"
         inkscape:connector-curvature="0"
         style="clip-rule:evenodd" /></clipPath><clipPath
       clipPathUnits="userSpaceOnUse"
       id="clipPath3962"><path
         d="M 8.047e-6,0 540.00001,0 l 0,780 L 8.047e-6,780 l 0,-780 z"
         id="path3964"
         inkscape:connector-curvature="0"
         style="clip-rule:evenodd" /></clipPath><clipPath
       clipPathUnits="userSpaceOnUse"
       id="clipPath3974"><path
         d="M 8.047e-6,0 540.00001,0 l 0,780 L 8.047e-6,780 l 0,-780 z"
         id="path3976"
         inkscape:connector-curvature="0"
         style="clip-rule:evenodd" /></clipPath><clipPath
       clipPathUnits="userSpaceOnUse"
       id="clipPath3988"><path
         d="M 8.047e-6,0 540.00001,0 l 0,780 L 8.047e-6,780 l 0,-780 z"
         id="path3990"
         inkscape:connector-curvature="0"
         style="clip-rule:evenodd" /></clipPath><clipPath
       clipPathUnits="userSpaceOnUse"
       id="clipPath4000"><path
         d="M 8.047e-6,0 540.00001,0 l 0,780 L 8.047e-6,780 l 0,-780 z"
         id="path4002"
         inkscape:connector-curvature="0"
         style="clip-rule:evenodd" /></clipPath><clipPath
       clipPathUnits="userSpaceOnUse"
       id="clipPath4012"><path
         d="M 8.047e-6,0 540.00001,0 l 0,780 L 8.047e-6,780 l 0,-780 z"
         id="path4014"
         inkscape:connector-curvature="0"
         style="clip-rule:evenodd" /></clipPath><clipPath
       clipPathUnits="userSpaceOnUse"
       id="clipPath4028"><path
         d="M 8.047e-6,0 540.00001,0 l 0,780 L 8.047e-6,780 l 0,-780 z"
         id="path4030"
         inkscape:connector-curvature="0"
         style="clip-rule:evenodd" /></clipPath><clipPath
       clipPathUnits="userSpaceOnUse"
       id="clipPath4040"><path
         d="M 8.047e-6,0 540.00001,0 l 0,780 L 8.047e-6,780 l 0,-780 z"
         id="path4042"
         inkscape:connector-curvature="0"
         style="clip-rule:evenodd" /></clipPath><clipPath
       clipPathUnits="userSpaceOnUse"
       id="clipPath4052"><path
         d="M 8.047e-6,0 540.00001,0 l 0,780 L 8.047e-6,780 l 0,-780 z"
         id="path4054"
         inkscape:connector-curvature="0"
         style="clip-rule:evenodd" /></clipPath><clipPath
       clipPathUnits="userSpaceOnUse"
       id="clipPath4066"><path
         d="M 8.047e-6,0 540.00001,0 l 0,780 L 8.047e-6,780 l 0,-780 z"
         id="path4068"
         inkscape:connector-curvature="0"
         style="clip-rule:evenodd" /></clipPath><clipPath
       clipPathUnits="userSpaceOnUse"
       id="clipPath4078"><path
         d="M 8.047e-6,0 540.00001,0 l 0,780 L 8.047e-6,780 l 0,-780 z"
         id="path4080"
         inkscape:connector-curvature="0"
         style="clip-rule:evenodd" /></clipPath><clipPath
       clipPathUnits="userSpaceOnUse"
       id="clipPath4090"><path
         d="M 8.047e-6,0 540.00001,0 l 0,780 L 8.047e-6,780 l 0,-780 z"
         id="path4092"
         inkscape:connector-curvature="0"
         style="clip-rule:evenodd" /></clipPath><clipPath
       clipPathUnits="userSpaceOnUse"
       id="clipPath4102"><path
         d="M 8.047e-6,0 540.00001,0 l 0,780 L 8.047e-6,780 l 0,-780 z"
         id="path4104"
         inkscape:connector-curvature="0"
         style="clip-rule:evenodd" /></clipPath><clipPath
       clipPathUnits="userSpaceOnUse"
       id="clipPath4114"><path
         d="M 8.047e-6,0 540.00001,0 l 0,780 L 8.047e-6,780 l 0,-780 z"
         id="path4116"
         inkscape:connector-curvature="0"
         style="clip-rule:evenodd" /></clipPath><clipPath
       clipPathUnits="userSpaceOnUse"
       id="clipPath4126"><path
         d="M 8.047e-6,0 540.00001,0 l 0,780 L 8.047e-6,780 l 0,-780 z"
         id="path4128"
         inkscape:connector-curvature="0"
         style="clip-rule:evenodd" /></clipPath><clipPath
       clipPathUnits="userSpaceOnUse"
       id="clipPath4138"><path
         d="M 8.047e-6,0 540.00001,0 l 0,780 L 8.047e-6,780 l 0,-780 z"
         id="path4140"
         inkscape:connector-curvature="0"
         style="clip-rule:evenodd" /></clipPath><clipPath
       clipPathUnits="userSpaceOnUse"
       id="clipPath4150"><path
         d="M 8.047e-6,0 540.00001,0 l 0,780 L 8.047e-6,780 l 0,-780 z"
         id="path4152"
         inkscape:connector-curvature="0"
         style="clip-rule:evenodd" /></clipPath><clipPath
       clipPathUnits="userSpaceOnUse"
       id="clipPath4162"><path
         d="M 8.047e-6,0 540.00001,0 l 0,780 L 8.047e-6,780 l 0,-780 z"
         id="path4164"
         inkscape:connector-curvature="0"
         style="clip-rule:evenodd" /></clipPath><clipPath
       clipPathUnits="userSpaceOnUse"
       id="clipPath4174"><path
         d="M -2.0385e-5,780 540,780 540,1.8311e-4 l -540.00004007,0"
         id="path4176"
         inkscape:connector-curvature="0"
         style="clip-rule:evenodd" /></clipPath><clipPath
       clipPathUnits="userSpaceOnUse"
       id="clipPath4184"><path
         d="M -1.4817e-5,780 540,780 540,1.8311e-4 l -540.000014817,0"
         id="path4186"
         inkscape:connector-curvature="0"
         style="clip-rule:evenodd" /></clipPath><clipPath
       clipPathUnits="userSpaceOnUse"
       id="clipPath4204"><path
         d="M 8.047e-6,0 540.00001,0 l 0,780 L 8.047e-6,780 l 0,-780 z"
         id="path4206"
         inkscape:connector-curvature="0"
         style="clip-rule:evenodd" /></clipPath><clipPath
       clipPathUnits="userSpaceOnUse"
       id="clipPath4216"><path
         d="M 8.047e-6,0 540.00001,0 l 0,780 L 8.047e-6,780 l 0,-780 z"
         id="path4218"
         inkscape:connector-curvature="0"
         style="clip-rule:evenodd" /></clipPath><clipPath
       clipPathUnits="userSpaceOnUse"
       id="clipPath4228"><path
         d="M 8.047e-6,0 540.00001,0 l 0,780 L 8.047e-6,780 l 0,-780 z"
         id="path4230"
         inkscape:connector-curvature="0"
         style="clip-rule:evenodd" /></clipPath><clipPath
       clipPathUnits="userSpaceOnUse"
       id="clipPath4240"><path
         d="M 8.047e-6,0 540.00001,0 l 0,780 L 8.047e-6,780 l 0,-780 z"
         id="path4242"
         inkscape:connector-curvature="0"
         style="clip-rule:evenodd" /></clipPath><clipPath
       clipPathUnits="userSpaceOnUse"
       id="clipPath4258"><path
         d="M 8.047e-6,0 540.00001,0 l 0,780 L 8.047e-6,780 l 0,-780 z"
         id="path4260"
         inkscape:connector-curvature="0"
         style="clip-rule:evenodd" /></clipPath><clipPath
       clipPathUnits="userSpaceOnUse"
       id="clipPath4270"><path
         d="M 8.047e-6,0 540.00001,0 l 0,780 L 8.047e-6,780 l 0,-780 z"
         id="path4272"
         inkscape:connector-curvature="0"
         style="clip-rule:evenodd" /></clipPath><clipPath
       clipPathUnits="userSpaceOnUse"
       id="clipPath4284"><path
         d="M 8.047e-6,0 540.00001,0 l 0,780 L 8.047e-6,780 l 0,-780 z"
         id="path4286"
         inkscape:connector-curvature="0"
         style="clip-rule:evenodd" /></clipPath><clipPath
       clipPathUnits="userSpaceOnUse"
       id="clipPath4298"><path
         d="M 8.047e-6,0 540.00001,0 l 0,780 L 8.047e-6,780 l 0,-780 z"
         id="path4300"
         inkscape:connector-curvature="0"
         style="clip-rule:evenodd" /></clipPath><clipPath
       clipPathUnits="userSpaceOnUse"
       id="clipPath4310"><path
         d="M 8.047e-6,0 540.00001,0 l 0,780 L 8.047e-6,780 l 0,-780 z"
         id="path4312"
         inkscape:connector-curvature="0"
         style="clip-rule:evenodd" /></clipPath><clipPath
       clipPathUnits="userSpaceOnUse"
       id="clipPath4326"><path
         d="M 8.047e-6,0 540.00001,0 l 0,780 L 8.047e-6,780 l 0,-780 z"
         id="path4328"
         inkscape:connector-curvature="0"
         style="clip-rule:evenodd" /></clipPath><clipPath
       clipPathUnits="userSpaceOnUse"
       id="clipPath4340"><path
         d="M 8.047e-6,0 540.00001,0 l 0,780 L 8.047e-6,780 l 0,-780 z"
         id="path4342"
         inkscape:connector-curvature="0"
         style="clip-rule:evenodd" /></clipPath><clipPath
       clipPathUnits="userSpaceOnUse"
       id="clipPath4354"><path
         d="M 8.047e-6,0 540.00001,0 l 0,780 L 8.047e-6,780 l 0,-780 z"
         id="path4356"
         inkscape:connector-curvature="0"
         style="clip-rule:evenodd" /></clipPath><clipPath
       clipPathUnits="userSpaceOnUse"
       id="clipPath4366"><path
         d="m 0,1.8311e-4 540,0 0,779.99999689 -540,0 L 0,1.8311e-4 Z"
         id="path4368"
         inkscape:connector-curvature="0"
         style="clip-rule:evenodd" /></clipPath><clipPath
       clipPathUnits="userSpaceOnUse"
       id="clipPath4376"><path
         d="M 8.047e-6,0 540.00001,0 l 0,780 L 8.047e-6,780 l 0,-780 z"
         id="path4378"
         inkscape:connector-curvature="0"
         style="clip-rule:evenodd" /></clipPath></defs><sodipodi:namedview
     pagecolor="#ffffff"
     bordercolor="#666666"
     borderopacity="1"
     objecttolerance="10"
     gridtolerance="10"
     guidetolerance="10"
     inkscape:pageopacity="0"
     inkscape:pageshadow="2"
     inkscape:window-width="1366"
     inkscape:window-height="745"
     id="namedview3338"
     showgrid="false"
     units="mm"
     inkscape:zoom="0.83547386"
     inkscape:cx="113.83841"
     inkscape:cy="156.86113"
     inkscape:window-x="-8"
     inkscape:window-y="-8"
     inkscape:window-maximized="1"
     inkscape:current-layer="g3344"
     fit-margin-top="0"
     fit-margin-left="0"
     fit-margin-right="0"
     fit-margin-bottom="0" /><g
     id="g3344"
     inkscape:groupmode="layer"
     inkscape:label="1 Introduction"
     transform="matrix(1.25,0,0,-1.25,-69.900329,818.54506)"><path
       d="m 225.42026,485.33605 131.99997,0 0,73.68 -131.99997,0 0,-73.68 z"
       style="fill:none;stroke:#000000;stroke-width:3;stroke-linecap:butt;stroke-linejoin:round;stroke-miterlimit:10;stroke-dasharray:none;stroke-opacity:1"
       id="path3982"
       inkscape:connector-curvature="0" /><g
       id="g3984"
       transform="translate(21.360263,-72.603949)"><g
         id="g3986"
         clip-path="url(#clipPath3988)"><text
           transform="matrix(1,0,0,-1,247.54,611.5)"
           style="font-variant:normal;font-weight:bold;font-size:18px;font-family:Arial;-inkscape-font-specification:'Arial Narrow Bold';writing-mode:lr-tb;fill:#000000;fill-opacity:1;fill-rule:nonzero;stroke:none"
           id="text3992"><tspan
             x="0 9.8459997 18.864 23.778 28.691999 36.846001"
             y="0"
             sodipodi:role="line"
             id="tspan3994">Suttas</tspan></text>
</g></g><g
       id="g3996"
       transform="translate(21.360263,-72.603949)"><g
         id="g3998"
         clip-path="url(#clipPath4000)"><text
           transform="matrix(1,0,0,-1,247.66,583.78)"
           style="font-variant:normal;font-weight:normal;font-size:15.96000004px;font-family:Arial;-inkscape-font-specification:'Arial Narrow';writing-mode:lr-tb;fill:#000000;fill-opacity:1;fill-rule:nonzero;stroke:none"
           id="text4004"><tspan
             x="0 8.7301197 16.07172 23.34948 29.972879 37.250641"
             y="0"
             sodipodi:role="line"
             id="tspan4006">Spoken</tspan></text>
</g></g><g
       id="g4008"
       transform="translate(21.360263,-72.603949)"><g
         id="g4010"
         clip-path="url(#clipPath4012)"><text
           transform="matrix(1,0,0,-1,238.54,568.42)"
           style="font-variant:normal;font-weight:normal;font-size:15.96000004px;font-family:Arial;-inkscape-font-specification:'Arial Narrow';writing-mode:lr-tb;fill:#000000;fill-opacity:1;fill-rule:nonzero;stroke:none"
           id="text4016"><tspan
             x="0 7.27776 10.18248 16.789921 23.381399 30.659161 38.000759 42.357841 48.90144 56.227081"
             y="0"
             sodipodi:role="line"
             id="tspan4018">discourses</tspan></text>
</g></g><path
       d="m 393.42023,485.33605 132,0 0,73.56 -132,0 0,-73.56 z"
       style="fill:#d9d9d9;fill-opacity:1;fill-rule:evenodd;stroke:none"
       id="path4020"
       inkscape:connector-curvature="0" /><path
       d="m 393.42023,485.33605 132,0 0,73.56 -132,0 0,-73.56 z"
       style="fill:none;stroke:#000000;stroke-width:3;stroke-linecap:butt;stroke-linejoin:round;stroke-miterlimit:10;stroke-dasharray:none;stroke-opacity:1"
       id="path4022"
       inkscape:connector-curvature="0" /><g
       id="g4024"
       transform="translate(21.360263,-72.603949)"><g
         id="g4026"
         clip-path="url(#clipPath4028)"><text
           transform="matrix(1,0,0,-1,391.44,611.45)"
           style="font-variant:normal;font-weight:bold;font-size:18px;font-family:Arial;-inkscape-font-specification:'Arial Narrow Bold';writing-mode:lr-tb;fill:#000000;fill-opacity:1;fill-rule:nonzero;stroke:none"
           id="text4032"><tspan
             x="0 10.656 19.674 28.691999 32.796001 41.759998 50.778 58.914001 72.036003 85.068001"
             y="0"
             sodipodi:role="line"
             id="tspan4034">Abhidhamma</tspan></text>
</g></g><g
       id="g4036"
       transform="translate(21.360263,-72.603949)"><g
         id="g4038"
         clip-path="url(#clipPath4040)"><text
           transform="matrix(1,0,0,-1,414.02,583.73)"
           style="font-variant:normal;font-weight:normal;font-size:15.96000004px;font-family:Arial;-inkscape-font-specification:'Arial Narrow';writing-mode:lr-tb;fill:#000000;fill-opacity:1;fill-rule:nonzero;stroke:none"
           id="text4044"><tspan
             x="0 9.4483204 16.789921 20.428801 27.70656 30.61128 33.515999 40.793758"
             y="0"
             sodipodi:role="line"
             id="tspan4046">Detailed</tspan></text>
</g></g><g
       id="g4048"
       transform="translate(21.360263,-72.603949)"><g
         id="g4050"
         clip-path="url(#clipPath4052)"><text
           transform="matrix(1,0,0,-1,407.42,568.37)"
           style="font-variant:normal;font-weight:normal;font-size:15.96000004px;font-family:Arial;-inkscape-font-specification:'Arial Narrow';writing-mode:lr-tb;fill:#000000;fill-opacity:1;fill-rule:nonzero;stroke:none"
           id="text4056"><tspan
             x="0 3.63888 7.9161601 15.19392 26.142481 33.420238 42.9324 50.210159 54.567242"
             y="0"
             sodipodi:role="line"
             id="tspan4058">framework</tspan></text>
</g></g><path
       d="m 57.420263,485.33605 131.999997,0 0,73.68 -131.999997,0 0,-73.68 z"
       style="fill:none;stroke:#000000;stroke-width:3;stroke-linecap:butt;stroke-linejoin:round;stroke-miterlimit:10;stroke-dasharray:none;stroke-opacity:1"
       id="path4060"
       inkscape:connector-curvature="0" /><g
       id="g4062"
       transform="translate(21.360263,-72.603949)"><g
         id="g4064"
         clip-path="url(#clipPath4066)"><text
           transform="matrix(1,0,0,-1,78.432,611.5)"
           style="font-variant:normal;font-weight:bold;font-size:18px;font-family:Arial;-inkscape-font-specification:'Arial Narrow Bold';writing-mode:lr-tb;fill:#000000;fill-opacity:1;fill-rule:nonzero;stroke:none"
           id="text4070"><tspan
             x="0 9.5939999 13.698 22.716 30.834 39.042"
             y="0"
             sodipodi:role="line"
             id="tspan4072">Vinaya</tspan></text>
</g></g><g
       id="g4074"
       transform="translate(21.360263,-72.603949)"><g
         id="g4076"
         clip-path="url(#clipPath4078)"><text
           transform="matrix(1,0,0,-1,75.792,583.78)"
           style="font-variant:normal;font-weight:normal;font-size:15.96000004px;font-family:Arial;-inkscape-font-specification:'Arial Narrow';writing-mode:lr-tb;fill:#000000;fill-opacity:1;fill-rule:nonzero;stroke:none"
           id="text4082"><tspan
             x="0 9.4483204 16.789921 19.694639 26.972401 33.579842 37.05912 40.698002 47.975761 52.33284"
             y="0"
             sodipodi:role="line"
             id="tspan4084">Rules for </tspan></text>
</g></g><g
       id="g4086"
       transform="translate(21.360263,-72.603949)"><g
         id="g4088"
         clip-path="url(#clipPath4090)"><text
           transform="matrix(1,0,0,-1,60.432,568.42)"
           style="font-variant:normal;font-weight:normal;font-size:15.96000004px;font-family:Arial;-inkscape-font-specification:'Arial Narrow';writing-mode:lr-tb;fill:#000000;fill-opacity:1;fill-rule:nonzero;stroke:none"
           id="text4094"><tspan
             x="0 10.90068 18.22632 25.50408 32.12748 38.71896 42.198238 50.92836 54.567242 61.845001 69.1866 76.464363"
             y="0"
             sodipodi:role="line"
             id="tspan4096">monks &amp; nuns</tspan></text>
</g></g><g
       id="g4098"
       transform="translate(21.360263,-72.603949)"><g
         id="g4100"
         clip-path="url(#clipPath4102)"><text
           transform="matrix(1,0,0,-1,65.592,540.55)"
           style="font-variant:normal;font-weight:normal;font-size:15.96000004px;font-family:Arial;-inkscape-font-specification:'Arial Narrow';writing-mode:lr-tb;fill:#000000;fill-opacity:1;fill-rule:nonzero;stroke:none"
           id="text4106"><tspan
             x="0 8.7301197 16.07172 19.7106 26.988359 34.266121 38.623199 41.52792 45.118919 52.396679 56.035561 58.940281 65.483879"
             y="0"
             sodipodi:role="line"
             id="tspan4108">Authoritative</tspan></text>
</g></g><g
       id="g4110"
       transform="translate(21.360263,-72.603949)"><g
         id="g4112"
         clip-path="url(#clipPath4114)"><text
           transform="matrix(1,0,0,-1,75.672,525.19)"
           style="font-variant:normal;font-weight:normal;font-size:15.96000004px;font-family:Arial;-inkscape-font-specification:'Arial Narrow';writing-mode:lr-tb;fill:#000000;fill-opacity:1;fill-rule:nonzero;stroke:none"
           id="text4118"><tspan
             x="0 6.60744 13.8852 21.226801 27.818279 35.096039 38.000759 45.326401"
             y="0"
             sodipodi:role="line"
             id="tspan4120">Teaching</tspan></text>
</g></g><g
       id="g4122"
       transform="translate(21.360263,-72.603949)"><g
         id="g4124"
         clip-path="url(#clipPath4126)"><text
           transform="matrix(1,0,0,-1,231.7,540.55)"
           style="font-variant:normal;font-weight:normal;font-size:15.96000004px;font-family:Arial;-inkscape-font-specification:'Arial Narrow';writing-mode:lr-tb;fill:#000000;fill-opacity:1;fill-rule:nonzero;stroke:none"
           id="text4130"><tspan
             x="0 9.4483204 16.789921 24.06768 30.69108 37.968842 45.31044 48.949322 51.790199 59.067959 66.409561 73.607521"
             y="0"
             sodipodi:role="line"
             id="tspan4132">Conventional</tspan></text>
</g></g><g
       id="g4134"
       transform="translate(21.360263,-72.603949)"><g
         id="g4136"
         clip-path="url(#clipPath4138)"><text
           transform="matrix(1,0,0,-1,243.7,525.19)"
           style="font-variant:normal;font-weight:normal;font-size:15.96000004px;font-family:Arial;-inkscape-font-specification:'Arial Narrow';writing-mode:lr-tb;fill:#000000;fill-opacity:1;fill-rule:nonzero;stroke:none"
           id="text4142"><tspan
             x="0 6.60744 13.8852 21.226801 27.818279 35.096039 38.000759 45.326401"
             y="0"
             sodipodi:role="line"
             id="tspan4144">Teaching</tspan></text>
</g></g><g
       id="g4146"
       transform="translate(21.360263,-72.603949)"><g
         id="g4148"
         clip-path="url(#clipPath4150)"><text
           transform="matrix(1,0,0,-1,418.7,540.55)"
           style="font-variant:normal;font-weight:normal;font-size:15.96000004px;font-family:Arial;-inkscape-font-specification:'Arial Narrow';writing-mode:lr-tb;fill:#000000;fill-opacity:1;fill-rule:nonzero;stroke:none"
           id="text4154"><tspan
             x="0 9.4483204 12.35304 19.66272 26.940479 34.282082"
             y="0"
             sodipodi:role="line"
             id="tspan4156">Higher</tspan></text>
</g></g><g
       id="g4158"
       transform="translate(21.360263,-72.603949)"><g
         id="g4160"
         clip-path="url(#clipPath4162)"><text
           transform="matrix(1,0,0,-1,411.74,525.19)"
           style="font-variant:normal;font-weight:normal;font-size:15.96000004px;font-family:Arial;-inkscape-font-specification:'Arial Narrow';writing-mode:lr-tb;fill:#000000;fill-opacity:1;fill-rule:nonzero;stroke:none"
           id="text4166"><tspan
             x="0 6.60744 13.8852 21.226801 27.818279 35.096039 38.000759 45.326401"
             y="0"
             sodipodi:role="line"
             id="tspan4168">Teaching</tspan></text>
</g></g><g
       id="g4170"
       transform="translate(21.360263,-72.603949)"><g
         id="g4172"
         clip-path="url(#clipPath4174)"><path
           d="m 267,678 0,-23.21 c 0,-1.65 1.34,-3 3,-3 l 168,0 -3,3 0,-14.21 c 0,-1.65 1.34,-3 3,-3 1.66,0 3,1.35 3,3 l 0,14.21 c 0,1.66 -1.34,3 -3,3 l -168,0 3,-3 0,23.21 c 0,1.66 -1.34,3 -3,3 -1.66,0 -3,-1.34 -3,-3 z m 162,-34.42 9,-12 9,12 -18,0 z"
           style="fill:#000000;fill-opacity:1;fill-rule:nonzero;stroke:none"
           id="path4178"
           inkscape:connector-curvature="0" /></g></g><g
       id="g4180"
       transform="translate(21.360263,-72.603949)"><g
         id="g4182"
         clip-path="url(#clipPath4184)"><path
           d="m 273,678 0,-23.18 c 0,-1.66 -1.34,-3 -3,-3 l -168,0 3,3 0,-14.18 c 0,-1.66 -1.34,-3 -3,-3 -1.66,0 -3,1.34 -3,3 l 0,14.18 c 0,1.66 1.34,3 3,3 l 168,0 -3,-3 0,23.18 c 0,1.66 1.34,3 3,3 1.66,0 3,-1.34 3,-3 z m -162,-34.36 -9,-12 -9,12 18,0 z"
           style="fill:#000000;fill-opacity:1;fill-rule:nonzero;stroke:none"
           id="path4188"
           inkscape:connector-curvature="0" /></g></g><path
       d="m 288.36026,593.39605 0,-25.36 c 0,-1.66 1.34,-3 3,-3 1.66,0 3,1.34 3,3 l 0,25.36 c 0,1.66 -1.34,3 -3,3 -1.66,0 -3,-1.34 -3,-3 z m -6,-22.36 9,-12 9,12 -18,0 z"
       style="fill:#000000;fill-opacity:1;fill-rule:nonzero;stroke:none"
       id="path4190"
       inkscape:connector-curvature="0" /><path
       d="m 279.42026,605.33605 24,0 0,12 -24,0 0,-12 z"
       style="fill:#4f81bd;fill-opacity:1;fill-rule:evenodd;stroke:none"
       id="path4192"
       inkscape:connector-curvature="0" /><path
       d="m 279.42026,605.33605 24,0 0,12 -24,0 0,-12 z"
       style="fill:none;stroke:#385d8a;stroke-width:2.03999996;stroke-linecap:butt;stroke-linejoin:round;stroke-miterlimit:10;stroke-dasharray:none;stroke-opacity:1"
       id="path4194"
       inkscape:connector-curvature="0" /><path
       d="m 225.42026,593.33605 131.99997,0 0,60 -131.99997,0 0,-60 z"
       style="fill:#ffffff;fill-opacity:1;fill-rule:evenodd;stroke:none"
       id="path4196"
       inkscape:connector-curvature="0" /><path
       d="m 225.42026,593.33605 131.99997,0 0,60 -131.99997,0 0,-60 z"
       style="fill:none;stroke:#000000;stroke-width:3;stroke-linecap:butt;stroke-linejoin:round;stroke-miterlimit:10;stroke-dasharray:none;stroke-opacity:1"
       id="path4198"
       inkscape:connector-curvature="0" /><g
       id="g4236"
       transform="translate(21.360263,-72.603949)"><g
         id="g4238"
         clip-path="url(#clipPath4240)"><text
           transform="matrix(1,0,0,-1,227.74,677.26)"
           style="font-variant:normal;font-weight:normal;font-size:15.96000004px;font-family:Arial;-inkscape-font-specification:'Arial Narrow';writing-mode:lr-tb;fill:#000000;fill-opacity:1;fill-rule:nonzero;stroke:none"
           id="text4244"><tspan
             x="0 7.9959602 15.33756 19.694639 26.972401 34.25016 37.777321 46.507439 53.849041 60.440521 67.031998 74.309761 77.948639"
             y="0"
             sodipodi:role="line"
             id="tspan4246">Three Baskets</tspan></text>
</g></g><g
       id="g4322"
       transform="translate(697.08943,24.896051)" /><text
       xml:space="preserve"
       style="font-style:normal;font-weight:normal;font-size:32px;line-height:125%;font-family:sans-serif;letter-spacing:0px;word-spacing:0px;fill:#000000;fill-opacity:1;stroke:none;stroke-width:1px;stroke-linecap:butt;stroke-linejoin:miter;stroke-opacity:1"
       x="270.32684"
       y="-628.43433"
       id="text4394"
       sodipodi:linespacing="125%"
       transform="scale(1,-1)"><tspan
         sodipodi:role="line"
         id="tspan4396"
         x="270.32684"
         y="-628.43433"
         style="font-style:normal;font-variant:normal;font-weight:normal;font-stretch:normal;font-size:13px;font-family:'Times New Roman';-inkscape-font-specification:'Times New Roman, '">Tipitaka</tspan></text>
</g></svg>